Coordinates
version=1
nRows=13
nColumns=22
inDegrees=yes

Units are S.I. units (second, meters, Newtons, ...)
If the header above contains a line with 'inDegrees', this indicates whether rotational values are in degrees (yes) or radians (no).

endheader
time	pelvis_tilt	pelvis_list	pelvis_rotation	pelvis_tx	pelvis_ty	pelvis_tz	hip_flexion_r	hip_adduction_r	hip_rotation_r	knee_angle_r	ankle_angle_r	subtalar_angle_r	hip_flexion_l	hip_adduction_l	hip_rotation_l	knee_angle_l	ankle_angle_l	subtalar_angle_l	lumbar_extension	lumbar_bending	lumbar_rotation
      0.01000000	     -1.74346056	     -1.85797233	     -8.88791520	     -0.83371895	      0.88256349	      0.79027005	    -17.18417346	     -3.89359041	      7.43885307	    -22.66643906	      1.02904796	     12.99230018	     32.30082912	    -10.66791077	    -22.28450405	    -35.37677892	      3.41854576	    -11.15455607	     -6.49250451	     -5.97418418	     14.49930973
      0.02000000	     -1.71147854	     -1.81611292	     -8.74555825	     -0.82663429	      0.88397896	      0.78803352	    -16.71011378	     -3.98067117	      7.51796606	    -23.96815947	     -0.77121738	     13.03470822	     31.87856110	    -10.32909548	    -22.10070356	    -35.47605296	      3.65512272	    -11.16622617	     -6.35764608	     -6.10689768	     14.40846590
      0.03000000	     -1.70508096	     -1.84208883	     -8.53722648	     -0.81808775	      0.88568229	      0.78528863	    -16.02370998	     -3.96779662	      7.64647785	    -25.66922324	     -2.95861905	     13.27207887	     31.40473219	     -9.97868970	    -21.79346469	    -35.58767398	      3.90710188	    -11.09492100	     -6.18526617	     -6.17353469	     14.26862783
      0.04000000	     -1.69108327	     -1.86090288	     -8.31688617	     -0.80831348	      0.88766515	      0.78213543	    -15.13401044	     -3.95012094	      7.81951630	    -27.75765580	     -5.44839036	     13.41546529	     30.80706792	     -9.58044556	    -21.53242315	    -35.64598336	      4.22874444	    -10.96633963	     -5.99636591	     -6.25366343	     14.09985659
      0.05000000	     -1.67352503	     -1.88392524	     -8.07162727	     -0.79769548	      0.88984765	      0.77866433	    -14.03759181	     -3.90038053	      8.01560463	    -30.19467367	     -8.14151656	     13.51760774	     30.11158479	     -9.14890771	    -21.29397645	    -35.63629305	      4.58479245	    -10.79545969	     -5.80348494	     -6.32851337	     13.88713033
      0.06000000	     -1.65196454	     -1.89537194	     -7.81305544	     -0.78658715	      0.89214395	      0.77499251	    -12.73807851	     -3.83105017	      8.21858535	    -32.93172230	    -10.90713750	     13.56381048	     29.32682857	     -8.68580782	    -21.10789689	    -35.53506238	      4.96239614	    -10.58543731	     -5.61362581	     -6.41179068	     13.62443363
      0.07000000	     -1.63332764	     -1.88410379	     -7.54141852	     -0.77531541	      0.89445420	      0.77117273	    -11.23737647	     -3.75510258	      8.40138456	    -35.91565634	    -13.60558449	     13.55421194	     28.48003415	     -8.18937673	    -20.98428093	    -35.33541028	      5.35631880	    -10.32602753	     -5.43165496	     -6.50524672	     13.32271464
      0.08000000	     -1.60494670	     -1.83189671	     -7.26342827	     -0.76409443	      0.89674404	      0.76729842	     -9.57593855	     -3.69411388	      8.55515634	    -39.06246124	    -16.11987957	     13.47284036	     27.56437958	     -7.64881493	    -20.93548320	    -35.02435963	      5.74883662	    -10.03502731	     -5.26924321	     -6.63065170	     12.96986735
      0.09000000	     -1.57560990	     -1.72692679	     -6.97270185	     -0.75309967	      0.89894827	      0.76338664	     -7.76997896	     -3.66399347	      8.66865640	    -42.30500197	    -18.33350611	     13.32517183	     26.60882736	     -7.05322474	    -20.95270389	    -34.60680244	      6.13349171	     -9.70192568	     -5.12413028	     -6.79250890	     12.56537841
      0.10000000	     -1.52962817	     -1.56933151	     -6.66314861	     -0.74240183	      0.90107422	      0.75945549	     -5.87081734	     -3.67120835	      8.73901668	    -45.56232568	    -20.17206634	     13.12114130	     25.60210841	     -6.39774795	    -21.02431499	    -34.08150516	      6.49453247	     -9.34843308	     -5.01417275	     -6.99301802	     12.10738545
      0.11000000	     -1.46468722	     -1.36410106	     -6.32868776	     -0.73202242	      0.90312027	      0.75552465	     -3.91553287	     -3.71436263	      8.76619548	    -48.76322073	    -21.58325469	     12.86995807	     24.55109756	     -5.68534706	    -21.12706975	    -33.45884669	      6.83751833	     -8.97982960	     -4.94092867	     -7.22664026	     11.59403341
      0.12000000	     -1.36857000	     -1.12443591	     -5.95530426	     -0.72194485	      0.90513337	      0.75158380	     -1.95463126	     -3.77426208	      8.77557933	    -51.83722259	    -22.59434944	     12.62436082	     23.44556768	     -4.92037902	    -21.22657441	    -32.73896548	      7.12237822	     -8.64136663	     -4.92329030	     -7.48086545	     11.01780685
      0.13000000	     -1.25432220	     -0.86535154	     -5.53578171	     -0.71214693	      0.90707941	      0.74761513	      0.01215938	     -3.85128430	      8.72579247	    -54.75736869	    -23.14500748	     12.35040868	     22.31327962	     -4.11774459	    -21.29061075	    -31.95466432	      7.39338692	     -8.30059019	     -4.94401735	     -7.73797213	     10.40519924
